<svg id="Layer_1" data-name="Layer 1" xmlns="http://www.w3.org/2000/svg" viewBox="0 0 466.04 199.63"><defs><style>.cls-1{fill:#1e347b;}</style></defs><polygon class="cls-1" points="85.01 155.26 62.45 155.26 57.85 126.39 29.37 126.39 24.84 155.26 2.38 155.26 2.38 154.87 31.81 2.95 55.75 2.95 85.01 155.26"/><path class="cls-1" d="M175.61,155.28H151.89L126.8,84.61V70.9h22.36V22.68H120.48v132.6H97.74V3.14h60.37q13.71,0,13.7,14V72.46q0,9.62-6.51,12.44-3.5,1.45-14.78,1.46Z"/><path class="cls-1" d="M281.48,155.28H259.6v-75A139.89,139.89,0,0,1,261,63.71l-25.47,133h0L210,63.71a141.89,141.89,0,0,1,1.36,16.52v75.05H189.51V3.14H211l23.92,84.09a40.24,40.24,0,0,1,.58,6.9,59.06,59.06,0,0,1,.58-6.9L260,3.14h21.49Z"/><path class="cls-1" d="M376.16,4,356,67.59Q352.35,77,346,99.38v55.9H323.18V99.38a130.39,130.39,0,0,0-4.47-16q-5.16-14.48-5.54-15.75L293.14,4q-.09-.09,0-.87h23.43l18.18,66.11L352.83,3.14h23.33Z"/><path class="cls-1" d="M463.66,155.28h-24.6l-16.72-53.56-16.82,53.56h-24.2v-.77l28.38-77.1Q383,3.53,383.07,3.14h24.3l15.17,49.58L437.8,3.14h24.11V4L435.27,76.83Z"/></svg>